<svg id="MDesign_Icon" data-name="MDesign Icon" xmlns="http://www.w3.org/2000/svg" viewBox="0 0 220 220"><defs><style>.cls-1{fill:#374851;}.cls-2{fill:#f4f4f4;stroke:#f4f4f4;}.cls-2,.cls-3{stroke-miterlimit:10;stroke-width:2px;}.cls-3{fill:#fc6b7f;stroke:#fc6b7f;}</style></defs><title>mdesigne-icon</title><g id="Background"><rect class="cls-1" x="0.02" y="0.23" width="220" height="220"/></g><path id="D" class="cls-2" d="M185.15,182.78c-40.69,40.69-67.49,31.54-84.3,14.72L82.22,178.87l98-98,16.69,16.69C216,116.54,226.56,141.38,185.15,182.78ZM181.64,103l-77.41,77.4,7.64,7.63c11.38,11.38,27.7,15.76,61-17.54,34.14-34.15,27.26-49,15.88-60.38Z"/><path id="M" class="cls-3" d="M74.48,171.13,63.36,160l42.2-46.86C120,96.88,136,79.58,144.41,71.46L55.57,130l-11-11,57.93-89.75C91.39,40.92,75.36,55.91,60.34,69.64L14.46,111.12,3.34,100,107.45,8,122.71,23.3,65.35,109.64,150.91,51.5l15.65,15.65Z"/></svg>