<svg xmlns="http://www.w3.org/2000/svg" width="593.45" height="217.58" viewBox="0 0 593.45 217.58"><defs><style>.cls-1{fill:#f4f4f4;}.cls-2{fill:#fc6b7f;}</style></defs><g id="MDesign_Logo" data-name="MDesign Logo"><g id="Design"><path id="n" class="cls-1" d="M593.45,85.8v85.14h-17.6V88.44c0-15.4-4.2-20.68-11.6-20.68-8.2,0-15.2,8.36-21.2,21.56v81.62h-17.6V55h15.2l1.4,17.38c6.4-11.88,13.8-19.8,26.4-19.8C583.85,52.58,593.45,65.78,593.45,85.8Z"/><path id="g" class="cls-1" d="M513.45,60.06c-6.6,3.08-14.6,3.52-24.8,3.52,10.2,6.16,15.4,15.84,15.4,29.48,0,23.54-12.6,39.16-33.8,39.16a24.88,24.88,0,0,1-10.6-2.2c-2.6,2.42-4.2,6.6-4.2,11,0,5.94,2.2,10.34,11,10.34h11.6c20.4,0,32.4,14.3,32.4,31.24,0,20.46-14,35-41.6,35-29.2,0-38.2-13.64-38.2-35h15.6c0,13.64,4.4,19.8,22.8,19.8,17.8,0,24-7,24-18.48,0-11.66-6.2-17.16-18.4-17.16h-7.4c-20.4,0-27.6-9.24-27.6-21.56,0-7.48,4.2-14.3,10.4-19.8-10.4-7-15.4-17.6-15.4-32.56,0-24.42,14.4-40.26,35.2-40.26,20.4,0,29-4.18,38.4-9.9Zm-61.4,32.78c0,15.62,6.2,26.4,17.4,26.4s17.2-6.82,17.2-26.62c0-17.16-5.4-26.18-17-26.18S452.05,74.58,452.05,92.84Z"/><path id="i" class="cls-1" d="M418.25,13.42c0,7.26-4.59,13-11.79,13-7,0-11.8-5.72-11.8-13,0-7.7,4.8-13.42,11.8-13.42C413.66,0,418.25,5.72,418.25,13.42Zm-2.79,157.52h-17.6V55h17.6Z"/><path id="s" class="cls-1" d="M377.66,65.56l-7.6,11.22c-7.2-5.94-13.8-9.24-21.8-9.24-9.4,0-15.2,5.94-15.2,16.06,0,9.68,4.4,14.08,19.2,20,18.2,7.26,28,16.28,28,35.2,0,23.1-16.4,34.76-35.2,34.76a43.37,43.37,0,0,1-33.4-15.18l9.2-10.78c6.8,6.6,14.6,10.78,23.8,10.78,10.6,0,17.6-6.6,17.6-18.48,0-11.66-4.4-16.28-20.8-22.88-18.8-7.7-26-17.6-26-32.78,0-17.82,13.2-31.68,32.4-31.68C360.06,52.58,369.66,57.2,377.66,65.56Z"/><path id="e" class="cls-1" d="M302.26,119.68h-55.2c1,29.26,9.4,38.06,22,38.06,9,0,15.4-3.08,22.6-9.68l7.8,11.66c-8.4,8.8-18.4,13.86-31,13.86-24.6,0-39.6-20.46-39.6-59.4,0-38.28,13.8-61.6,37.8-61.6,23,0,36,19.14,36,57C302.66,113.52,302.46,117,302.26,119.68Zm-16.6-15.84c0-25.52-6.2-36.08-19-36.08-11.2,0-18.6,9.46-19.6,37.62h38.6Z"/><path id="D" class="cls-1" d="M213.86,94.38c0,62.92-27.8,76.56-53.8,76.56h-28.8V19.36h25.8C186.46,19.36,213.86,30.36,213.86,94.38Zm-64.4-59V155.1h11.8c17.6,0,33.6-9.24,33.6-60.72,0-52.8-16.8-59-34.4-59Z"/></g><path id="M" class="cls-2" d="M110,170.94H92.8l-3.6-68.86c-1.4-23.76-2.4-49.5-2.2-62.26l-23.4,114h-17L22,39.6c.4,17.6-.4,41.58-1.4,63.8l-3.4,67.54H0L9.4,19.36H33l22.4,111.1L76.6,19.36h24.2Z"/></g></svg>