<svg id="MDesign_Logo" data-name="MDesign Logo" xmlns="http://www.w3.org/2000/svg" viewBox="0 0 949.75 219"><defs><style>.cls-1{fill:#f4f4f4;}.cls-2{fill:#fc6b7f;}.cls-3{fill:#636363;}</style></defs><title>mdesigne-logo</title><g id="MDesign_Logo" data-name="MDesign Logo"><g id="Design"><path id="n" class="cls-1" d="M803.16,86.51v85.14h-17.6V89.15c0-15.4-4.2-20.68-11.59-20.68-8.2,0-15.2,8.36-21.2,21.56v81.62h-17.6V55.71h15.2l1.4,17.38c6.4-11.88,13.79-19.8,26.39-19.8C793.56,53.29,803.16,66.49,803.16,86.51Z"/><path id="g" class="cls-1" d="M723.17,60.77c-6.6,3.08-14.6,3.52-24.8,3.52,10.2,6.16,15.4,15.84,15.4,29.48,0,23.54-12.6,39.16-33.8,39.16a24.88,24.88,0,0,1-10.6-2.2c-2.6,2.42-4.2,6.6-4.2,11,0,5.94,2.2,10.34,11,10.34h11.6c20.4,0,32.4,14.3,32.4,31.24,0,20.46-14,35-41.6,35-29.2,0-38.2-13.64-38.2-35H656c0,13.64,4.4,19.8,22.8,19.8,17.8,0,24-7,24-18.48,0-11.66-6.2-17.16-18.4-17.16H677c-20.4,0-27.6-9.24-27.6-21.56,0-7.48,4.2-14.3,10.4-19.8-10.4-7-15.4-17.6-15.4-32.56,0-24.42,14.4-40.26,35.2-40.26,20.4,0,29-4.18,38.4-9.9Zm-61.4,32.78c0,15.62,6.2,26.4,17.4,26.4s17.2-6.82,17.2-26.62c0-17.16-5.4-26.18-17-26.18S661.77,75.29,661.77,93.55Z"/><path id="i" class="cls-1" d="M628,14.13c0,7.26-4.6,13-11.8,13-7,0-11.8-5.72-11.8-13,0-7.7,4.8-13.42,11.8-13.42C623.37.71,628,6.43,628,14.13Zm-2.8,157.52h-17.6V55.71h17.6Z"/><path id="s" class="cls-1" d="M587.37,66.27l-7.6,11.22c-7.2-5.94-13.8-9.24-21.8-9.24-9.4,0-15.2,5.94-15.2,16.06,0,9.68,4.4,14.08,19.2,20,18.2,7.26,28,16.28,28,35.2,0,23.1-16.4,34.76-35.2,34.76a43.37,43.37,0,0,1-33.4-15.18l9.2-10.78c6.8,6.6,14.6,10.78,23.8,10.78,10.6,0,17.6-6.6,17.6-18.48,0-11.66-4.4-16.28-20.8-22.88-18.8-7.7-26-17.6-26-32.78,0-17.82,13.2-31.68,32.4-31.68C569.77,53.29,579.37,57.91,587.37,66.27Z"/><path id="e" class="cls-1" d="M512,120.39h-55.2c1,29.26,9.4,38.06,22,38.06,9,0,15.4-3.08,22.6-9.68l7.8,11.66c-8.4,8.8-18.4,13.86-31,13.86-24.6,0-39.6-20.46-39.6-59.4,0-38.28,13.8-61.6,37.8-61.6,23,0,36,19.14,36,57C512.37,114.23,512.17,117.75,512,120.39Zm-16.6-15.84c0-25.52-6.2-36.08-19-36.08-11.2,0-18.6,9.46-19.6,37.62h38.6Z"/><path id="D" class="cls-1" d="M423.57,95.09c0,62.92-27.8,76.56-53.8,76.56H341V20.07h25.8C396.17,20.07,423.57,31.07,423.57,95.09Zm-64.4-59V155.81H371c17.6,0,33.6-9.24,33.6-60.72,0-52.8-16.8-59-34.4-59Z"/></g><path id="M" class="cls-2" d="M319.71,171.65h-17.2l-3.6-68.86c-1.4-23.76-2.4-49.5-2.2-62.26l-23.4,114h-17L231.71,40.31c.4,17.6-.4,41.58-1.4,63.8l-3.4,67.54h-17.2l9.4-151.58h23.6l22.4,111.1,21.2-111.1h24.2Z"/><polygon id="_" data-name="&lt;" class="cls-3" points="130.31 167.68 31.48 95.56 130.31 24.84 130.31 2.57 129.9 1.72 15.69 85.36 15.69 105.75 130.3 191.43 130.31 191.41 130.31 167.68"/><path id="_2" data-name="/" class="cls-3" d="M206.6,8.25l-46.81,179-17.28-2.8,46.8-179Z"/><polygon id="_3" data-name="&gt;" class="cls-3" points="819.12 167.68 917.95 95.56 819.12 24.84 819.12 2.57 819.54 1.72 933.75 85.36 933.75 105.75 819.13 191.43 819.12 191.41 819.12 167.68"/></g></svg>
